# xmcd
#
# Track frame offsets:
#	150
#	14045
#	30535
#	44480
#	56970
#	67222
#	80295
#	95250
#	110450
#	127822
#	142920
#	156797
#	172882
#	186650
#	199070
#	212617
#	228365
#
# Disc length: 3289 seconds
#
# Revision: 0
# Processed by: cddbd v1.5.2PL0 Copyright (c) Steve Scherf et al.
# Submitted via: dBpowerAMP V4.0
#
DISCID=ed0cd711
DTITLE=Amaraí e Francis Junior - Amaraí e Francis Junior
DYEAR=2005
DGENRE=Sertaneja
TTITLE0=Saudade da minha terra
TTITLE1=Mágoa de boiadeiro
TTITLE2=Eu e a viola
TTITLE3=Mercedita
TTITLE4=Quanto mais muié mió
TTITLE5=Aurora do mundo
TTITLE6=Velha canoa
TTITLE7=Bandida
TTITLE8=Fazendo amor proibido
TTITLE9=Sai solidão
TTITLE10=Veja só quem vai chegar
TTITLE11=Morena cheirosa
TTITLE12=Arrependida
TTITLE13=Morrendo de amor
TTITLE14=Desventura
TTITLE15=Ave sem ninho
TTITLE16=Carreiro Sebastião
EXTD=
EXTT0=
EXTT1=
EXTT2=
EXTT3=
EXTT4=
EXTT5=
EXTT6=
EXTT7=
EXTT8=
EXTT9=
EXTT10=
EXTT11=
EXTT12=
EXTT13=
EXTT14=
EXTT15=
EXTT16=
PLAYORDER=
